<svg id="Capa_1" enable-background="new 0 0 512 512" height="512" viewBox="0 0 512 512" width="512" xmlns="http://www.w3.org/2000/svg"><g><g><g><path d="m437.225 299.448v-107.296c0-8.277 30.154-8.277 30.154 0v107.295c0 8.278-30.154 8.278-30.154.001z" fill="#8198fc"/><path d="m44.621 297.983v-105.831c0-8.277 30.154-8.277 30.154 0v105.831c0 8.277-30.154 8.277-30.154 0z" fill="#9fd0fd"/></g><g><g><path d="m15.077 284.46c-8.327 0-15.077 6.71-15.077 14.988 0 8.277 6.75 14.988 15.077 14.988h240.923v-29.976z" fill="#9fd0fd"/><path d="m496.923 284.46h-240.923v29.976h240.923c8.327 0 15.077-6.71 15.077-14.988s-6.75-14.988-15.077-14.988z" fill="#8198fc"/></g><g><path d="m15.077 177.164c-8.327 0-15.077 6.711-15.077 14.988s6.75 14.988 15.077 14.988h240.923v-29.976z" fill="#9fd0fd"/><path d="m496.923 177.164h-240.923v29.976h240.923c8.327 0 15.077-6.71 15.077-14.988s-6.75-14.988-15.077-14.988z" fill="#8198fc"/></g></g></g><g fill="#8198fc"><path d="m468.793 419.926h-44.137c-3.999 0-7.834-1.579-10.661-4.39l-72.871-72.44c-5.889-5.853-5.889-15.342 0-21.196 5.887-5.854 15.434-5.854 21.322 0l68.455 68.05h37.892c8.327 0 15.077 6.71 15.077 14.988s-6.75 14.988-15.077 14.988z"/><path d="m468.793 449.902c-8.327 0-15.077-6.71-15.077-14.988v-59.951c0-8.277 6.75-14.988 15.077-14.988s15.077 6.71 15.077 14.988v59.951c0 8.277-6.75 14.988-15.077 14.988z"/></g><g fill="#9fd0fd"><path d="m87.344 419.926h-44.137c-8.327 0-15.077-6.71-15.077-14.988 0-8.277 6.75-14.988 15.077-14.988h37.892l68.455-68.05c5.888-5.854 15.434-5.854 21.322 0 5.889 5.853 5.889 15.342 0 21.196l-72.871 72.44c-2.827 2.811-6.662 4.39-10.661 4.39z"/><path d="m43.207 449.902c-8.327 0-15.077-6.71-15.077-14.988v-59.951c0-8.277 6.75-14.988 15.077-14.988s15.077 6.71 15.077 14.988v59.951c0 8.277-6.75 14.988-15.077 14.988z"/></g><g><path d="m316.308 512c-8.327 0-15.077-6.71-15.077-14.988v-15.137c0-8.277 6.75-14.988 15.077-14.988s15.077 6.71 15.077 14.988v15.137c0 8.278-6.75 14.988-15.077 14.988z" fill="#9fd0fd"/><path d="m195.692 512c-8.327 0-15.077-6.71-15.077-14.988v-15.137c0-8.277 6.75-14.988 15.077-14.988s15.077 6.71 15.077 14.988v15.137c0 8.278-6.751 14.988-15.077 14.988z" fill="#d1e8fe"/><path d="m346.462 451.05c-8.327 0-15.077-6.71-15.077-14.988v-15.137c0-8.277 6.75-14.988 15.077-14.988s15.077 6.71 15.077 14.988v15.137c0 8.277-6.75 14.988-15.077 14.988z" fill="#9fd0fd"/><path d="m286.154 451.05c-8.327 0-15.077-6.71-15.077-14.988v-15.137c0-8.277 6.75-14.988 15.077-14.988s15.077 6.71 15.077 14.988v15.137c0 8.277-6.75 14.988-15.077 14.988z" fill="#9fd0fd"/><path d="m225.846 451.05c-8.327 0-15.077-6.71-15.077-14.988v-15.137c0-8.277 6.75-14.988 15.077-14.988s15.077 6.71 15.077 14.988v15.137c0 8.277-6.75 14.988-15.077 14.988z" fill="#d1e8fe"/><path d="m165.538 451.05c-8.327 0-15.077-6.71-15.077-14.988v-15.137c0-8.277 6.75-14.988 15.077-14.988s15.077 6.71 15.077 14.988v15.137c0 8.277-6.751 14.988-15.077 14.988z" fill="#d1e8fe"/><g><path d="m240.923 481.876v15.137c0 8.277 6.75 14.988 15.077 14.988l10.051-22.556-10.051-22.557c-8.327 0-15.077 6.71-15.077 14.988z" fill="#d1e8fe"/><path d="m256 466.888v45.112c8.327 0 15.077-6.71 15.077-14.988v-15.137c0-8.277-6.75-14.987-15.077-14.987z" fill="#9fd0fd"/></g></g><g><path d="m256 59.951c-8.327 0-15.077-6.71-15.077-14.988v-29.975c0-8.278 6.75-14.988 15.077-14.988s15.077 6.71 15.077 14.988v29.976c0 8.277-6.75 14.987-15.077 14.987z" fill="#3f70ad"/><path d="m256 0v59.951c8.327 0 15.077-6.71 15.077-14.988v-29.975c0-8.278-6.75-14.988-15.077-14.988z" fill="#074a7f"/></g><g><path d="m215.618 119.254v-49.136c0-22.135 18.115-40.143 40.382-40.143s40.382 18.008 40.382 40.143v49.135h-80.764z" fill="#8198fc"/><path d="m256 29.976v89.278h40.382v-49.136c0-22.135-18.115-40.142-40.382-40.142z" fill="#676cfb"/></g><g><g><path d="m256 389.746c-79.845 0-144.804-64.574-144.804-143.946s64.959-143.946 144.804-143.946 144.804 64.573 144.804 143.946-64.959 143.946-144.804 143.946z" fill="#fee17f"/><path d="m256 101.854v287.892c79.845 0 144.804-64.574 144.804-143.946s-64.959-143.946-144.804-143.946z" fill="#feb35d"/></g><g><g><ellipse cx="256" cy="245.8" fill="#3f70ad" rx="114.65" ry="113.971"/><path d="m256 131.829v227.941c63.218 0 114.649-51.127 114.649-113.971s-51.431-113.97-114.649-113.97z" fill="#074a7f"/></g><g><g><path d="m277.322 245.8 43.306-43.05c5.889-5.853 5.889-15.342 0-21.196-5.887-5.854-15.434-5.854-21.322 0l-43.306 43.05-43.306-43.05c-5.888-5.854-15.434-5.854-21.322 0-5.889 5.853-5.889 15.342 0 21.196l43.306 43.05-43.306 43.05c-5.889 5.853-5.889 15.342 0 21.196 2.944 2.927 6.802 4.39 10.661 4.39s7.717-1.463 10.661-4.39l43.306-43.051 43.306 43.05c2.944 2.927 6.802 4.39 10.661 4.39s7.717-1.463 10.661-4.39c5.889-5.853 5.889-15.342 0-21.196z" fill="#e8f2ff"/><path d="m277.322 245.8 43.306-43.05c5.889-5.853 5.889-15.342 0-21.196-5.887-5.854-15.434-5.854-21.322 0l-43.306 43.05v42.391l43.306 43.05c2.944 2.927 6.802 4.39 10.661 4.39s7.717-1.463 10.661-4.39c5.889-5.853 5.889-15.342 0-21.196z" fill="#d1e8fe"/></g><g><g><path d="m256 290.763c-24.941 0-45.231-20.171-45.231-44.963s20.29-44.963 45.231-44.963 45.231 20.171 45.231 44.963-20.29 44.963-45.231 44.963z" fill="#9fd0fd"/><path d="m256 200.836v89.927c24.941 0 45.231-20.171 45.231-44.963s-20.29-44.964-45.231-44.964z" fill="#8198fc"/></g><g><ellipse cx="256" cy="245.8" fill="#e8f2ff" rx="15.077" ry="14.988"/><path d="m256 230.812v29.976c8.314 0 15.077-6.723 15.077-14.988s-6.763-14.988-15.077-14.988z" fill="#d1e8fe"/></g></g></g></g></g><g><path d="m366.602 130.829h-221.204c-8.327 0-15.077-6.71-15.077-14.988 0-8.277 6.75-14.988 15.077-14.988h221.203c8.327 0 15.077 6.71 15.077 14.988.001 8.278-6.75 14.988-15.076 14.988z" fill="#9fd0fd"/><path d="m366.602 100.854h-110.602v29.976h110.602c8.327 0 15.077-6.71 15.077-14.988s-6.751-14.988-15.077-14.988z" fill="#8198fc"/></g></g></svg>