<svg id="Layer_3" enable-background="new 0 0 64 64" height="512" viewBox="0 0 64 64" width="512" xmlns="http://www.w3.org/2000/svg"><path d="m11 12v6h-2-2c-1.1 0-2-.9-2-2v-4z" fill="#aac348"/><path d="m11 16v2h-4c-1.1 0-2-.9-2-2z" fill="#879a39"/><path d="m63 63h-20l-1.11-1.11 3.11-3.89h2l2-2h3 2l3 3h2z" fill="#cc8964"/><path d="m41.89 61.89-.89 1.11h-17l-1.67-1.67 2.67-3.33h2l2-2h3 2l3 3h2z" fill="#cc8964"/><path d="m41.33 61.33-1.33 1.67h-19l1.6-2h8.652c.473 0 .92-.215 1.215-.585.492-.618.442-1.507-.117-2.065l-.895-.895c-.291-.291-.686-.455-1.098-.455h-1.357l-.5-.5.5-.5h5l3 3h2z" fill="#9a4738"/><path d="m61.33 61.33-1.33 1.67h-19l1.6-2h8.652c.473 0 .92-.215 1.215-.585.492-.618.442-1.507-.117-2.065l-.895-.895c-.291-.291-.686-.455-1.098-.455h-1.357l-.5-.5.5-.5h5l3 3h2z" fill="#9a4738"/><path d="m8 58 2-2h2 3l3 3h2l2.33 2.33-1.33 1.67h-19l4-5z" fill="#cc8964"/><path d="m22.33 61.33-1.33 1.67h-19l1.6-2h8.652c.473 0 .92-.215 1.215-.585.492-.618.442-1.507-.117-2.065l-.895-.895c-.291-.291-.686-.455-1.098-.455h-1.357l-.5-.5.5-.5h5l3 3h2z" fill="#9a4738"/><g fill="#aac348"><path d="m58 46h3s-2 11-9 4c0 0 1-4 6-4z"/><path d="m46 46c5 0 6 4 6 4-7 7-9-4-9-4z"/><path d="m38 46h3s-2 11-9 4c0 0 1-4 6-4z"/><path d="m26 46c5 0 6 4 6 4-7 7-9-4-9-4z"/><path d="m18 46h3s-2 11-9 4c0 0 1-4 6-4z"/><path d="m6 46c5 0 6 4 6 4-7 7-9-4-9-4z"/></g><path d="m12 50c-7 7-9-4-9-4s5 5 9 4z" fill="#879a39"/><path d="m32 50c-7 7-9-4-9-4s5 5 9 4z" fill="#879a39"/><path d="m32 50c7 7 9-4 9-4s-5 5-9 4z" fill="#879a39"/><path d="m12 50c7 7 9-4 9-4s-5 5-9 4z" fill="#879a39"/><path d="m52 50c7 7 9-4 9-4s-5 5-9 4z" fill="#879a39"/><path d="m52 50c-7 7-9-4-9-4s5 5 9 4z" fill="#879a39"/><path d="m29 26h6v3h-6z" fill="#85ddff"/><path d="m45 7h-26c0-2.21 1.79-4 4-4h18c2.21 0 4 1.79 4 4z" fill="#eaeaea"/><path d="m45 7v5h-4-18-4v-5z" fill="#85ddff"/><path d="m38 7v-2c0-.73-.2-1.41-.54-2h3.54c2.21 0 4 1.79 4 4z" fill="#b8b8b7"/><path d="m45 7v5h-26v-2h16c1.657 0 3-1.343 3-3z" fill="#52a3bc"/><path d="m39.25 24.28c-.15.99-.99 1.72-1.98 1.72h-2.27-6-2.27c-.99 0-1.83-.73-1.98-1.72l-.32-2.28h7.57 7.57z" fill="#585858"/><path d="m8 8 3 4h-6v-4h1z" fill="#686868"/><path d="m58 8h1v4h-6l3-4z" fill="#686868"/><path d="m59 12v4c0 1.1-.9 2-2 2h-2-2v-6z" fill="#879a39"/><path d="m24.43 22h-5.43c-1.1 0-2-.9-2-2 0-.55-.22-1.05-.59-1.41-.36-.37-.86-.59-1.41-.59h-1-3v-6h6 2 4z" fill="#eaeaea"/><path d="m47 12h6v6h-3-1c-1.1 0-2 .9-2 2 0 .55-.22 1.05-.59 1.41-.36.37-.86.59-1.41.59h-5.43l1.43-10h4z" fill="#eaeaea"/><path d="m41 12-1.43 10h-7.57-7.57l-1.43-10z" fill="#686868"/><path d="m24.43 22h-5.43c-1.1 0-2-.9-2-2 0-.55-.22-1.05-.59-1.41-.36-.37-.86-.59-1.41-.59h-4v-2h12.57z" fill="#b8b8b7"/><path d="m53 12v6h-4c-1.1 0-2 .9-2 2 0 .55-.22 1.05-.59 1.41-.36.37-.86.59-1.41.59h-5.43l.86-6h2.57c2.21 0 4-1.79 4-4z" fill="#b8b8b7"/><path d="m40.43 16-.86 6h-15.14l-.86-6z" fill="#585858"/><path d="m22.25 8.875c-.643 0-.645 1 0 1 .643 0 .645-1 0-1z" fill="#fff"/><path d="m25.187 8.938h-1c-.643 0-.645 1 0 1h1c.644 0 .645-1 0-1z" fill="#fff"/><g><circle cx="32" cy="45" r="1"/><g><circle cx="22.031" cy="33.5" r="1"/><circle cx="18.063" cy="34" r="1"/><circle cx="14.094" cy="34.5" r="1"/></g><g><circle cx="41.969" cy="33.5" r="1"/><circle cx="45.937" cy="34" r="1"/><circle cx="49.906" cy="34.5" r="1"/></g><circle cx="19.515" cy="41.485" r="1"/><circle cx="44.485" cy="41.485" r="1"/></g><path d="m63 62h-1.382l-1.724-3.447c-.169-.339-.515-.553-.894-.553h-1.586l-2.707-2.707c-.187-.188-.442-.293-.707-.293h-1v-2.85c1.125.781 2.206 1.183 3.234 1.183.403 0 .797-.061 1.183-.181 3.4-1.062 4.458-6.371 4.567-6.973.053-.292-.026-.592-.216-.819s-.472-.36-.768-.36h-3c-3.057 0-4.953 1.391-6 2.804-1.047-1.413-2.943-2.804-6-2.804-.552 0-1 .448-1 1s.448 1 1 1c3.145 0 4.4 1.816 4.833 2.732-1.081.98-2.468 1.88-3.651 1.511-1.915-.596-2.958-4.117-3.198-5.423-.1-.543-.622-.898-1.164-.804-.543.1-.903.619-.804 1.162.109.602 1.167 5.911 4.567 6.973.386.12.78.181 1.183.181 1.028 0 2.109-.402 3.234-1.183v2.851h-2c-.265 0-.52.105-.707.293l-1.707 1.707h-1.586c-.265 0-.52.105-.707.293l-1 1c-.391.391-.391 1.023 0 1.414s1.023.391 1.414 0l.707-.707h1.586c.265 0 .52-.105.707-.293l1.707-1.707h4.172l2.707 2.707c.187.188.442.293.707.293h1.382l1 2h-15.968l-3.707-3.707c-.187-.188-.442-.293-.707-.293h-1.586l-2.707-2.707c-.187-.188-.442-.293-.707-.293h-1v-2.85c1.125.781 2.206 1.183 3.234 1.183.403 0 .797-.061 1.183-.181 3.4-1.062 4.458-6.371 4.567-6.973.053-.292-.026-.592-.216-.819s-.472-.36-.768-.36h-3c-3.057 0-4.953 1.391-6 2.804-1.047-1.413-2.943-2.804-6-2.804-.552 0-1 .448-1 1s.448 1 1 1c3.145 0 4.4 1.816 4.833 2.732-1.081.98-2.468 1.88-3.651 1.511-1.915-.596-2.958-4.117-3.198-5.423-.1-.543-.621-.898-1.164-.804-.543.1-.903.619-.804 1.162.109.602 1.167 5.911 4.567 6.973.386.12.78.181 1.183.181 1.028 0 2.109-.402 3.234-1.183v2.851h-2c-.265 0-.52.105-.707.293l-1.707 1.707h-1.586c-.304 0-.591.138-.781.375l-.8 1c-.345.431-.275 1.061.156 1.405.43.344 1.06.275 1.405-.156l.5-.624h1.52c.265 0 .52-.105.707-.293l1.707-1.707h4.172l2.707 2.707c.187.188.442.293.707.293h1.586l2 2h-16.172l-3.707-3.707c-.187-.188-.442-.293-.707-.293h-1.586l-2.707-2.707c-.187-.188-.442-.293-.707-.293h-2v-2.85c1.125.781 2.206 1.183 3.234 1.183.403 0 .797-.061 1.183-.181 3.4-1.062 4.458-6.371 4.567-6.973.053-.292-.026-.592-.216-.819s-.472-.36-.768-.36h-3c-3.057 0-4.953 1.391-6 2.804-1.047-1.413-2.943-2.804-6-2.804-.552 0-1 .448-1 1s.448 1 1 1c3.145 0 4.4 1.816 4.833 2.732-1.081.98-2.468 1.88-3.651 1.511-1.915-.596-2.958-4.117-3.198-5.423-.1-.543-.621-.898-1.164-.804-.543.1-.903.619-.804 1.162.109.602 1.167 5.911 4.567 6.973.386.12.78.181 1.183.181 1.028 0 2.109-.402 3.234-1.183v2.851h-1c-.265 0-.52.105-.707.293l-1.707 1.707h-1.586c-.304 0-.591.138-.781.375l-1.6 2c-.345.431-.275 1.061.156 1.405.43.345 1.061.276 1.405-.156l1.3-1.624h1.52c.265 0 .52-.105.707-.293l1.707-1.707h4.172l2.707 2.707c.187.188.442.293.707.293h1.586l2 2h-20.586c-.552 0-1 .448-1 1s.448 1 1 1h62c.552 0 1-.448 1-1s-.448-1-1-1zm-5-15h1.726c-.471 1.582-1.43 3.783-2.907 4.243-1.183.369-2.57-.53-3.65-1.511.433-.913 1.691-2.732 4.831-2.732zm-20 0h1.726c-.471 1.582-1.43 3.783-2.907 4.243-1.183.369-2.57-.53-3.65-1.511.433-.913 1.691-2.732 4.831-2.732zm-20 0h1.726c-.471 1.582-1.43 3.783-2.907 4.243-1.183.369-2.57-.53-3.65-1.511.433-.913 1.691-2.732 4.831-2.732z"/><path d="m1 5h2c.552 0 1-.448 1-1s-.448-1-1-1h-2c-.552 0-1 .448-1 1s.448 1 1 1z"/><path d="m53 5h2c.552 0 1-.448 1-1s-.448-1-1-1h-2c-.552 0-1 .448-1 1s.448 1 1 1z"/><path d="m63 3h-4v-2c0-.552-.448-1-1-1s-1 .448-1 1v6h-1c-.315 0-.611.148-.8.4l-2.7 3.6h-6.5v-4c0-2.757-2.243-5-5-5h-18c-2.757 0-5 2.243-5 5v2c0 .552.448 1 1 1s1-.448 1-1v-1h24v3h-3-18-11.5l-2.7-3.6c-.189-.252-.485-.4-.8-.4h-1v-2h4c.552 0 1-.448 1-1s-.448-1-1-1h-4v-2c0-.552-.448-1-1-1s-1 .448-1 1v6c-.552 0-1 .448-1 1v4 4c0 1.302.839 2.402 2 2.816v2.184c0 .552.448 1 1 1h2c.552 0 1-.448 1-1v-2h2.754l-1.73 7.783c-.12.539.22 1.073.759 1.193.073.016.146.024.218.024.458 0 .872-.317.975-.783l1.826-8.217h.198c.551 0 1 .449 1 1 0 1.654 1.346 3 3 3h2c.552 0 1-.448 1-1s-.448-1-1-1h-2c-.551 0-1-.449-1-1 0-1.654-1.346-3-3-3h-3v-4h10.133l1.632 11.424c.21 1.469 1.486 2.576 2.969 2.576h1.266v2c0 .552.448 1 1 1h6c.552 0 1-.448 1-1v-2h1.266c1.483 0 2.76-1.107 2.969-2.576l1.632-11.424h10.133v4h-3c-1.654 0-3 1.346-3 3 0 .551-.449 1-1 1h-2c-.552 0-1 .448-1 1s.448 1 1 1h2c1.654 0 3-1.346 3-3 0-.551.449-1 1-1h.198l1.826 8.217c.103.466.517.783.975.783.072 0 .145-.008.218-.024.539-.12.879-.654.759-1.193l-1.73-7.783h2.754v2c0 .552.448 1 1 1h2c.552 0 1-.448 1-1v-2.184c1.161-.414 2-1.514 2-2.816v-4-4c0-.552-.448-1-1-1v-2h4c.552 0 1-.448 1-1s-.448-1-1-1zm-40 1h18c1.302 0 2.402.839 2.816 2h-23.632c.414-1.161 1.514-2 2.816-2zm33.5 5h1.5v2h-3zm-47.5 2h-3v-2h1.5zm0 6h-2c-.551 0-1-.449-1-1v-3h4v4zm25 11h-4v-1h4zm3.266-3h-2.266-6-2.266c-.494 0-.919-.369-.99-.859l-.162-1.141h12.837l-.163 1.142c-.071.489-.496.858-.99.858zm1.438-4h-13.408l-1.143-8h15.694zm19.296-5c0 .551-.449 1-1 1h-2-1v-4h4z"/><path d="m41.657 39.657c.256 0 .512-.098.707-.293.391-.391.391-1.023 0-1.414l-5.657-5.657c-.391-.391-1.023-.391-1.414 0s-.391 1.023 0 1.414l5.657 5.657c.195.195.451.293.707.293z"/><path d="m23.05 39.364 5.657-5.657c.391-.391.391-1.023 0-1.414s-1.023-.391-1.414 0l-5.657 5.657c-.391.391-.391 1.023 0 1.414.195.195.451.293.707.293s.512-.098.707-.293z"/><path d="m33 41v-8c0-.552-.448-1-1-1s-1 .448-1 1v8c0 .552.448 1 1 1s1-.448 1-1z"/></svg>