<svg height="512pt" viewBox="0 0 512 512" width="512pt" xmlns="http://www.w3.org/2000/svg"><path d="m169.171875 319h173.660156v115h-173.660156zm0 0" fill="#2b6182"/><path d="m182.800781 474.5h-31.601562c-7.84375 0-14.199219-6.355469-14.199219-14.199219v-101.601562c0-7.84375 6.355469-14.199219 14.199219-14.199219h31.601562c7.84375 0 14.199219 6.355469 14.199219 14.199219v101.601562c0 7.84375-6.355469 14.199219-14.199219 14.199219zm0 0" fill="#4380a0"/><path d="m182.800781 344.5h-30c7.84375 0 14.199219 6.355469 14.199219 14.199219v101.601562c0 7.84375-6.355469 14.199219-14.199219 14.199219h30c7.84375 0 14.199219-6.355469 14.199219-14.199219v-101.601562c0-7.84375-6.355469-14.199219-14.199219-14.199219zm0 0" fill="#3b7191"/><path d="m360.800781 474.5h-31.601562c-7.84375 0-14.199219-6.355469-14.199219-14.199219v-101.601562c0-7.84375 6.355469-14.199219 14.199219-14.199219h31.601562c7.84375 0 14.199219 6.355469 14.199219 14.199219v101.601562c0 7.84375-6.355469 14.199219-14.199219 14.199219zm0 0" fill="#4380a0"/><path d="m360.800781 344.5h-30c7.84375 0 14.199219 6.355469 14.199219 14.199219v101.601562c0 7.84375-6.355469 14.199219-14.199219 14.199219h30c7.84375 0 14.199219-6.355469 14.199219-14.199219v-101.601562c0-7.84375-6.355469-14.199219-14.199219-14.199219zm0 0" fill="#3b7191"/><path d="m378 319h-244c-8.285156 0-15-6.714844-15-15s6.714844-15 15-15h244c8.285156 0 15 6.714844 15 15s-6.714844 15-15 15zm0 0" fill="#4380a0"/><path d="m378 289h-30c8.285156 0 15 6.714844 15 15s-6.714844 15-15 15h30c8.285156 0 15-6.714844 15-15s-6.714844-15-15-15zm0 0" fill="#3b7191"/><path d="m489.5 504.5h-467c-8.285156 0-15-6.714844-15-15s6.714844-15 15-15h467c8.285156 0 15 6.714844 15 15s-6.714844 15-15 15zm0 0" fill="#bf6724"/><path d="m489.5 474.5h-30c8.285156 0 15 6.714844 15 15s-6.714844 15-15 15h30c8.285156 0 15-6.714844 15-15s-6.714844-15-15-15zm0 0" fill="#a35418"/><path d="m52.5 451.332031h-15.164062c-16.480469 0-29.835938-13.355469-29.835938-29.832031v-13.023438c0-1.367187 1.109375-2.476562 2.472656-2.476562h12.691406c16.480469 0 29.835938 13.359375 29.835938 29.835938zm0 0" fill="#6fe036"/><path d="m52.5 451.332031h15.164062c16.480469 0 29.835938-13.355469 29.835938-29.832031v-13.027344c0-1.363281-1.109375-2.472656-2.472656-2.472656h-12.691406c-16.480469 0-29.835938 13.355469-29.835938 29.835938zm0 0" fill="#5cba2d"/><path d="m459.5 451.332031h-15.164062c-16.480469 0-29.835938-13.355469-29.835938-29.832031v-13.027344c0-1.363281 1.109375-2.472656 2.472656-2.472656h12.691406c16.480469 0 29.835938 13.355469 29.835938 29.835938zm0 0" fill="#6fe036"/><path d="m459.5 451.332031h15.164062c16.480469 0 29.835938-13.355469 29.835938-29.832031v-13.027344c0-1.363281-1.109375-2.472656-2.472656-2.472656h-12.691406c-16.480469 0-29.835938 13.355469-29.835938 29.835938zm0 0" fill="#5cba2d"/><path d="m358 289h-204v-40c0-5.523438 4.476562-10 10-10h184c5.523438 0 10 4.476562 10 10zm0 0" fill="#ffca28"/><path d="m348 239h-30c5.523438 0 10 4.476562 10 10v40h30v-40c0-5.523438-4.476562-10-10-10zm0 0" fill="#ffb300"/><path d="m489.5 154h-467c-8.285156 0-15-6.714844-15-15s6.714844-15 15-15h467c8.285156 0 15 6.714844 15 15s-6.714844 15-15 15zm0 0" fill="#ffca28"/><path d="m489.5 124h-30c8.285156 0 15 6.714844 15 15s-6.714844 15-15 15h30c8.285156 0 15-6.714844 15-15s-6.714844-15-15-15zm0 0" fill="#ffb300"/><path d="m341.734375 239h-171.46875l6.734375-85h158zm0 0" fill="#bdf9ff"/><path d="m335 154h-30l6.734375 85h30zm0 0" fill="#8cf2ff"/><path d="m256 371c-19.328125 0-35-15.671875-35-35v-17h70v17c0 19.328125-15.671875 35-35 35zm0 0" fill="#ffca28"/><path d="m261 319v17c0 13.960938-8.175781 26.011719-20 31.628906 4.546875 2.15625 9.632812 3.371094 15 3.371094 19.328125 0 35-15.671875 35-35v-17zm0 0" fill="#ffb300"/><path d="m502.023438 398.5h-12.6875c-12.183594 0-23.015626 5.863281-29.835938 14.917969-6.820312-9.054688-17.652344-14.917969-29.835938-14.917969h-12.6875c-5.5 0-9.976562 4.476562-9.976562 9.972656v13.027344c0 20.585938 16.746094 37.335938 37.335938 37.335938h7.664062v8.164062h-70.5625c.6875-2.109375 1.0625-4.363281 1.0625-6.699219v-101.601562c0-11.964844-9.734375-21.699219-21.699219-21.699219h-10.472656v-10.5h27.671875c12.40625 0 22.5-10.09375 22.5-22.5s-10.09375-22.5-22.5-22.5h-12.5v-32.5c0-9.425781-7.492188-17.113281-16.832031-17.464844l-.699219-8.816406c-.328125-4.128906-3.910156-7.207031-8.070312-6.882812-4.128907.324218-7.210938 3.9375-6.882813 8.066406l.601563 7.597656h-155.234376l5.546876-70h144.140624l2.453126 30.949219c.328124 4.128906 3.921874 7.226562 8.070312 6.886719 4.128906-.328126 7.210938-3.941407 6.882812-8.070313l-2.359374-29.765625h146.382812c12.40625 0 22.5-10.09375 22.5-22.5s-10.09375-22.5-22.5-22.5h-226v-30.5c0-4.140625-3.355469-7.5-7.5-7.5-4.140625 0-7.5 3.359375-7.5 7.5v30.5h-152.261719c-4.140625 0-7.5 3.359375-7.5 7.5s3.359375 7.5 7.5 7.5h393.261719c4.136719 0 7.5 3.363281 7.5 7.5s-3.363281 7.5-7.5 7.5h-467c-4.136719 0-7.5-3.363281-7.5-7.5s3.363281-7.5 7.5-7.5h41.367188c4.144531 0 7.5-3.359375 7.5-7.5s-3.355469-7.5-7.5-7.5h-41.367188c-12.40625 0-22.5 10.09375-22.5 22.5s10.09375 22.5 22.5 22.5h146.382812l-5.550781 70.035156c-9.339843.355469-16.832031 8.039063-16.832031 17.464844v32.5h-12.5c-12.40625 0-22.5 10.09375-22.5 22.5s10.09375 22.5 22.5 22.5h27.671875v10.5h-10.472656c-11.964844 0-21.699219 9.734375-21.699219 21.699219v101.601562c0 2.335938.375 4.589844 1.0625 6.699219h-70.5625v-8.167969h7.667969c20.585937 0 37.332031-16.746093 37.332031-37.332031v-13.027344c0-5.5-4.476562-9.972656-9.972656-9.972656h-12.695313c-12.179687 0-23.015625 5.863281-29.832031 14.917969-6.820312-9.054688-17.652344-14.917969-29.832031-14.917969h-12.695313c-5.5 0-9.972656 4.476562-9.972656 9.972656v13.027344c0 20.585938 16.746094 37.335938 37.332031 37.335938h7.667969v8.164062h-22.5c-12.40625 0-22.5 10.09375-22.5 22.5s10.09375 22.5 22.5 22.5h467c12.40625 0 22.5-10.09375 22.5-22.5s-10.09375-22.5-22.5-22.5h-22.5v-8.167969h7.664062c20.589844 0 37.335938-16.746093 37.335938-37.332031v-13.027344c0-5.496094-4.476562-9.972656-9.976562-9.972656zm-419.691407 15h7.667969v8c0 12.316406-10.019531 22.335938-22.332031 22.335938h-7.667969v-8c0-12.316407 10.019531-22.335938 22.332031-22.335938zm-67.332031 8v-8h7.667969c12.3125 0 22.332031 10.019531 22.332031 22.332031v8h-7.667969c-12.3125 0-22.332031-10.019531-22.332031-22.332031zm352.5-62.800781v9.144531h-4.621094c-4.144531 0-7.5 3.355469-7.5 7.5 0 4.140625 3.355469 7.5 7.5 7.5h4.621094v17.804688h-4.621094c-4.144531 0-7.5 3.359374-7.5 7.5 0 4.140624 3.355469 7.5 7.5 7.5h4.621094v17.808593h-4.621094c-4.144531 0-7.5 3.359375-7.5 7.5s3.355469 7.5 7.5 7.5h4.621094v11.84375c0 3.695313-3.003906 6.699219-6.699219 6.699219h-31.601562c-3.695313 0-6.699219-3.003906-6.699219-6.699219v-11.84375h4.621094c4.144531 0 7.5-3.359375 7.5-7.5s-3.355469-7.5-7.5-7.5h-4.621094v-17.808593h4.621094c4.144531 0 7.5-3.359376 7.5-7.5 0-4.140626-3.355469-7.5-7.5-7.5h-4.621094v-17.804688h4.621094c4.144531 0 7.5-3.359375 7.5-7.5 0-4.144531-3.355469-7.5-7.5-7.5h-4.621094v-9.144531c0-3.695313 3.003906-6.699219 6.699219-6.699219h31.601562c3.695313 0 6.699219 3.003906 6.699219 6.699219zm-206-109.699219c0-1.378906 1.121094-2.5 2.5-2.5h184c1.378906 0 2.5 1.121094 2.5 2.5v32.5h-189zm-35 55c0-4.136719 3.363281-7.5 7.5-7.5h244c4.136719 0 7.5 3.363281 7.5 7.5s-3.363281 7.5-7.5 7.5h-244c-4.136719 0-7.5-3.363281-7.5-7.5zm102 22.5h55v9.5c0 15.164062-12.335938 27.5-27.5 27.5s-27.5-12.335938-27.5-27.5zm-51.828125 0h36.828125v9.5c0 23.433594 19.066406 42.5 42.5 42.5s42.5-19.066406 42.5-42.5v-9.5h36.828125v10.5h-6.128906c-11.964844 0-21.699219 9.734375-21.699219 21.699219v67.800781h-51.5c-4.140625 0-7.5 3.359375-7.5 7.5s3.359375 7.5 7.5 7.5h51.5v18.800781c0 2.335938.375 4.589844 1.0625 6.699219h-105.125c.6875-2.109375 1.0625-4.363281 1.0625-6.699219v-18.800781h19.578125c4.140625 0 7.5-3.359375 7.5-7.5s-3.359375-7.5-7.5-7.5h-19.578125v-67.800781c0-11.964844-9.734375-21.699219-21.699219-21.699219h-6.128906zm-32.171875 133.800781v-11.84375h4.621094c4.144531 0 7.5-3.359375 7.5-7.5s-3.355469-7.5-7.5-7.5h-4.621094v-17.808593h4.621094c4.144531 0 7.5-3.359376 7.5-7.5 0-4.140626-3.355469-7.5-7.5-7.5h-4.621094v-17.804688h4.621094c4.144531 0 7.5-3.359375 7.5-7.5 0-4.144531-3.355469-7.5-7.5-7.5h-4.621094v-9.144531c0-3.695313 3.003906-6.699219 6.699219-6.699219h31.601562c3.695313 0 6.699219 3.003906 6.699219 6.699219v9.144531h-4.621094c-4.144531 0-7.5 3.355469-7.5 7.5 0 4.140625 3.355469 7.5 7.5 7.5h4.621094v17.804688h-4.621094c-4.144531 0-7.5 3.359374-7.5 7.5 0 4.140624 3.355469 7.5 7.5 7.5h4.621094v17.808593h-4.621094c-4.144531 0-7.5 3.359375-7.5 7.5s3.355469 7.5 7.5 7.5h4.621094v11.84375c0 3.695313-3.003906 6.699219-6.699219 6.699219h-31.601562c-3.695313 0-6.699219-3.003906-6.699219-6.699219zm352.5 29.199219c0 4.136719-3.363281 7.5-7.5 7.5h-467c-4.136719 0-7.5-3.363281-7.5-7.5s3.363281-7.5 7.5-7.5h467c4.136719 0 7.5 3.363281 7.5 7.5zm-75-68v-8h7.664062c12.316407 0 22.335938 10.019531 22.335938 22.332031v8h-7.664062c-12.316407 0-22.335938-10.019531-22.335938-22.332031zm75 0c0 12.316406-10.019531 22.335938-22.335938 22.335938h-7.664062v-8c0-12.316407 10.019531-22.335938 22.335938-22.335938h7.664062zm0 0"/><path d="m30 203.5c4.140625 0 7.5-3.359375 7.5-7.5v-12c0-4.140625-3.359375-7.5-7.5-7.5s-7.5 3.359375-7.5 7.5v12c0 4.140625 3.359375 7.5 7.5 7.5zm0 0"/><path d="m22.5 238c0 4.140625 3.359375 7.5 7.5 7.5s7.5-3.359375 7.5-7.5v-12c0-4.140625-3.359375-7.5-7.5-7.5s-7.5 3.359375-7.5 7.5zm0 0"/><path d="m22.5 280c0 4.140625 3.359375 7.5 7.5 7.5s7.5-3.359375 7.5-7.5v-12c0-4.140625-3.359375-7.5-7.5-7.5s-7.5 3.359375-7.5 7.5zm0 0"/><path d="m22.5 322c0 4.140625 3.359375 7.5 7.5 7.5s7.5-3.359375 7.5-7.5v-12c0-4.140625-3.359375-7.5-7.5-7.5s-7.5 3.359375-7.5 7.5zm0 0"/><path d="m71.800781 322c0 4.140625 3.355469 7.5 7.5 7.5 4.140625 0 7.5-3.359375 7.5-7.5v-12c0-4.140625-3.359375-7.5-7.5-7.5-4.144531 0-7.5 3.359375-7.5 7.5zm0 0"/><path d="m71.800781 238c0 4.140625 3.355469 7.5 7.5 7.5 4.140625 0 7.5-3.359375 7.5-7.5v-12c0-4.140625-3.359375-7.5-7.5-7.5-4.144531 0-7.5 3.359375-7.5 7.5zm0 0"/><path d="m71.800781 280c0 4.140625 3.355469 7.5 7.5 7.5 4.140625 0 7.5-3.359375 7.5-7.5v-12c0-4.140625-3.359375-7.5-7.5-7.5-4.144531 0-7.5 3.359375-7.5 7.5zm0 0"/><path d="m79.300781 203.5c4.140625 0 7.5-3.359375 7.5-7.5v-12c0-4.140625-3.359375-7.5-7.5-7.5-4.144531 0-7.5 3.359375-7.5 7.5v12c0 4.140625 3.355469 7.5 7.5 7.5zm0 0"/><path d="m440.199219 226c0-4.140625-3.355469-7.5-7.5-7.5-4.140625 0-7.5 3.359375-7.5 7.5v12c0 4.140625 3.359375 7.5 7.5 7.5 4.144531 0 7.5-3.359375 7.5-7.5zm0 0"/><path d="m440.199219 184c0-4.140625-3.355469-7.5-7.5-7.5-4.140625 0-7.5 3.359375-7.5 7.5v12c0 4.140625 3.359375 7.5 7.5 7.5 4.144531 0 7.5-3.359375 7.5-7.5zm0 0"/><path d="m440.199219 268c0-4.140625-3.355469-7.5-7.5-7.5-4.140625 0-7.5 3.359375-7.5 7.5v12c0 4.140625 3.359375 7.5 7.5 7.5 4.144531 0 7.5-3.359375 7.5-7.5zm0 0"/><path d="m432.699219 302.5c-4.140625 0-7.5 3.359375-7.5 7.5v12c0 4.140625 3.359375 7.5 7.5 7.5 4.144531 0 7.5-3.359375 7.5-7.5v-12c0-4.140625-3.355469-7.5-7.5-7.5zm0 0"/><path d="m482 302.5c-4.144531 0-7.5 3.359375-7.5 7.5v12c0 4.140625 3.355469 7.5 7.5 7.5s7.5-3.359375 7.5-7.5v-12c0-4.140625-3.355469-7.5-7.5-7.5zm0 0"/><path d="m489.5 226c0-4.140625-3.355469-7.5-7.5-7.5s-7.5 3.359375-7.5 7.5v12c0 4.140625 3.355469 7.5 7.5 7.5s7.5-3.359375 7.5-7.5zm0 0"/><path d="m489.5 268c0-4.140625-3.355469-7.5-7.5-7.5s-7.5 3.359375-7.5 7.5v12c0 4.140625 3.355469 7.5 7.5 7.5s7.5-3.359375 7.5-7.5zm0 0"/><path d="m489.5 184c0-4.140625-3.355469-7.5-7.5-7.5s-7.5 3.359375-7.5 7.5v12c0 4.140625 3.355469 7.5 7.5 7.5s7.5-3.359375 7.5-7.5zm0 0"/><path d="m286 256.5h-60c-4.140625 0-7.5 3.359375-7.5 7.5s3.359375 7.5 7.5 7.5h60c4.144531 0 7.5-3.359375 7.5-7.5s-3.355469-7.5-7.5-7.5zm0 0"/><path d="m256.035156 53.441406c-11.433594 0-22.292968 3.660156-31.394531 10.589844-3.296875 2.507812-3.933594 7.214844-1.425781 10.511719 2.507812 3.289062 7.210937 3.9375 10.511718 1.425781 6.46875-4.925781 14.183594-7.527344 22.308594-7.527344 8.101563 0 15.792969 2.585938 22.25 7.480469 3.300782 2.503906 8.003906 1.855469 10.507813-1.441406 2.503906-3.300781 1.855469-8.007813-1.445313-10.507813-9.082031-6.890625-19.910156-10.53125-31.3125-10.53125zm0 0"/><path d="m301.378906 51.597656c2.503906-3.300781 1.859375-8.003906-1.441406-10.507812-12.742188-9.671875-27.925781-14.78125-43.902344-14.78125-16.019531 0-31.226562 5.128906-43.980468 14.839844-3.296876 2.507812-3.933594 7.214843-1.425782 10.511718 2.507813 3.289063 7.210938 3.9375 10.511719 1.425782 10.121094-7.707032 22.1875-11.777344 34.894531-11.777344 12.679688 0 24.722656 4.054687 34.835938 11.730468 3.300781 2.503907 8.003906 1.855469 10.507812-1.441406zm0 0"/><path d="m209.042969 30.855469c13.625-10.375 29.875-15.855469 46.992187-15.855469 17.082032 0 33.3125 5.464844 46.929688 15.804688 3.296875 2.507812 8.003906 1.863281 10.507812-1.4375 2.507813-3.296876 1.863282-8.003907-1.4375-10.507813-16.25-12.339844-35.613281-18.859375-56-18.859375-20.425781 0-39.820312 6.542969-56.078125 18.917969-3.296875 2.507812-3.933593 7.214843-1.425781 10.511719 2.511719 3.296874 7.214844 3.933593 10.511719 1.425781zm0 0"/></svg>