<svg id="Seed" enable-background="new 0 0 64 64" viewBox="0 0 64 64" xmlns="http://www.w3.org/2000/svg"><g><g><path d="m40.732 2.73747 17.15335 31.97799c-5.13435 6.23422-11.52804 11.08578-18.70694 14.30042-1.25547.56218-2.68333.60308-3.99526.18946l-16.97377-5.3515-12.09461-22.54729c8.70677-10.55947 21.01563-17.16208 34.61723-18.56908z" fill="#f0f0fc"/><path d="m47.11502 2.2615 14.69445 27.394c.67873 1.26532.20321 2.84128-1.06211 3.52001l-2.86211 1.53527-17.15234-31.97612 2.86211-1.53527c1.26531-.67873 2.84127-.2032 3.52 1.06211z" fill="#97e16b"/><path d="m3.24799 22.84432 2.86678-1.53777 12.09462 22.54729-6.33906-1.99597c-1.05511-.33222-1.93847-1.06388-2.46136-2.03867l-7.22102-13.46173c-.67461-1.25763-.19759-2.83854 1.06004-3.51315z" fill="#97e16b"/><path d="m57.89007 34.72088c-5.13789 6.23523-11.52803 11.07624-18.70562 14.29065-1.26509.56801-2.68517.60678-4.00194.19367l-5.34441-1.69112c7.46156-3.35648 13.58057-8.75257 17.28555-15.63327 1.9364-3.60168 3.0079-7.2292 3.53723-10.63729z" opacity=".07"/><path d="m60.74306 33.17174-2.85299 1.53622-7.2292-13.47736c.77453-4.95714.37434-9.46249-.21952-12.75436l11.37313 21.1842c.67131 1.26509.19368 2.84007-1.07142 3.5113z" opacity=".07"/><g fill="#101016"><path d="m18.20952 44.743c-.08941 0-.17882-.01389-.26736-.04167l-6.33943-1.99653c-1.28299-.40278-2.34028-1.27778-2.97657-2.46529l-7.22137-13.46183c-.90799-1.69271-.26997-3.80817 1.42275-4.71616l2.8672-1.5382c.20747-.11198.45052-.13715.67709-.06771.2257.06771.41493.22309.52604.43056l12.09465 22.54781c.17101.31771.13194.70834-.09809.98785-.17188.20659-.42449.32117-.68491.32117zm-14.5417-21.11551c-.82813.44531-1.1415 1.48091-.69705 2.3099l7.22137 13.46184c.4158.77431 1.10677 1.34723 1.94445 1.61111l4.25782 1.34028-10.64239-19.84119z"/><path d="m57.88585 35.59888c-.31598 0-.62327-.17014-.78299-.46875l-17.15282-31.97492c-.11111-.20747-.13542-.45139-.06771-.67709s.22223-.41493.43056-.52604l2.86286-1.53559c.82118-.44097 1.76389-.53559 2.65626-.26563.89236.2691 1.625.86893 2.06598 1.69011l14.69448 27.39417c.44098.82118.53473 1.76476.26563 2.65713-.2691.89236-.8698 1.625-1.69098 2.06598l-2.86112 1.53473c-.13369.07292-.27779.1059-.42015.1059zm-15.9497-32.50096 16.31255 30.40894 2.07813-1.11459c.8316-.44618 1.14584-1.48525.69965-2.31684l-14.69448-27.39418c-.21701-.40278-.57639-.69705-1.01389-.829-.43403-.13281-.89931-.08681-1.30209.13021z"/><path d="m36.96044 50.37149c-.68229 0-1.37153-.1059-2.04514-.31945l-16.97314-5.35071c-.22136-.06945-.40625-.22222-.51563-.42709l-12.09465-22.54779c-.17101-.31771-.13194-.70747.09722-.98525 8.862-10.74743 21.36638-17.45578 35.21016-18.88807.36632-.03559.70486.1467.875.46441l17.15456 31.97752c.17014.31771.13195.7066-.09722.98611-5.21877 6.33509-11.62156 11.2292-19.02957 14.54518-.80901.36285-1.68749.54514-2.58159.54514zm-18.13894-7.25697 16.62852 5.24307c1.1441.36111 2.34028.30729 3.36633-.15278 6.97572-3.12327 13.02955-7.6962 18.00352-13.59726l-16.58858-30.92108c-12.94362 1.48872-24.63896 7.76304-33.04957 17.72834z"/></g></g><g><circle cx="31.999" cy="28.008" fill="#ffdc6e" r="12.331"/><path d="m32.01598 41.23431c-1.28299 0-2.57292-.18924-3.83595-.56945-3.38109-1.02084-6.16234-3.29689-7.83075-6.408-1.67015-3.11112-2.02778-6.68665-1.00695-10.06774 1.01997-3.38022 3.29515-6.16148 6.40714-7.83075 3.11112-1.66928 6.68318-2.02692 10.0686-1.00695 3.38022 1.02084 6.16148 3.29602 7.82988 6.408 1.67014 3.11199 2.02605 6.68752 1.00695 10.06774-1.02084 3.38109-3.29688 6.16235-6.408 7.83075-1.94792 1.04515-4.07987 1.5764-6.23092 1.5764zm-.03298-24.67368c-1.86198 0-3.70661.4592-5.39324 1.36372-2.69358 1.44532-4.66321 3.85244-5.54602 6.77866s-.57292 6.01998.87153 8.71357c1.44445 2.69271 3.85157 4.6632 6.7778 5.54515 2.92535.88021 6.01911.57466 8.71356-.86979 2.69272-1.44445 4.66321-3.85244 5.54515-6.7778.88368-2.92622.57465-6.02085-.86979-8.71443-1.44445-2.69358-3.85244-4.66321-6.7778-5.54602-1.09376-.32986-2.21008-.49306-3.32119-.49306z" fill="#101016"/></g><g><path d="m27.04748 27.37169c-.32512 4.01302 1.4535 6.87474 2.55932 7.96017.18888.1854.43013.33876.63297.3675.86244.1221 1.40352-.89035 1.91468-1.51365 1.51201-1.84368 2.27058-2.51452 2.81199-3.0093.52146-.47654 1.05784-1.05191 1.59985-1.96458 1.31941-2.22174-.11403-4.41172-1.00624-5.31454-.90525-.916-1.69852-.73349-1.90131-.85611-.29525-.17852-.75244-1.17879-2.2957-1.20318-1.88383-.0298-4.00546 1.70605-4.31556 5.53369z" fill="#75d64c"/><g fill="#101016"><path d="m30.39272 36.59888c-.08941 0-.18143-.00521-.27691-.0191-.51997-.07639-.93229-.4184-1.13282-.61458-1.50434-1.47744-3.14758-4.6337-2.82206-8.66582.3559-4.37414 2.90886-6.34984 5.1554-6.34984h.06163c1.57553.02518 2.33594.86285 2.70053 1.26563-.01389.00174-.02951.00174-.04861.00087.5191.06771 1.32639.21181 2.16146 1.05643 1.42188 1.43924 2.57466 3.97657 1.13889 6.39325-.63715 1.07466-1.27778 1.72309-1.76563 2.16754-.60243.55035-1.32118 1.20834-2.72223 2.91668-.08507.10243-.17014.21875-.25868.33681-.45486.61109-1.12674 1.51213-2.19097 1.51213zm-2.45921-9.1554c-.29601 3.65713 1.30382 6.2804 2.29601 7.25436.08073.07813.15538.12152.17882.13194.13628-.02083.53472-.51736.74913-.80556.1059-.14063.20833-.27951.3099-.40278 1.48264-1.80643 2.2882-2.54254 2.82119-3.03039.49827-.45573.99827-.96441 1.51389-1.83247 1.20834-2.03473-.65799-4.0165-.875-4.23612-.45486-.46007-.81771-.50434-1.11111-.5408-.1875-.02344-.40278-.04948-.61632-.17882-.18056-.10938-.30556-.2474-.43924-.3941-.28299-.31337-.60591-.66927-1.41146-.68143-1.48438-.09722-3.15105 1.44185-3.41581 4.71617z"/><path d="m29.99254 32.25946c-.00608 0-.01302 0-.0191 0-.49132-.01128-.88021-.41754-.86979-.90799.09983-4.55557 3.80817-9.15627 5.48526-10.55559.37674-.31597.93576-.26736 1.25174.11285.31424.37674.26389.9375-.11285 1.25174-1.26389 1.05469-4.7587 5.20053-4.84637 9.22919-.01041.48438-.40625.8698-.88889.8698z"/></g></g><g><ellipse cx="14.869" cy="50.179" fill="#ffdc6e" rx="3.5" ry="2.268" transform="matrix(.903 -.429 .429 .903 -20.095 11.236)"/><path d="m13.78764 53.60761c-.19792 0-.39236-.01215-.5816-.03646-1.07379-.14236-1.91233-.69271-2.30035-1.50869-.38802-.81771-.28472-1.81424.28386-2.73785.50174-.81424 1.32813-1.52431 2.32553-1.99827 2.22396-1.05209 4.55991-.63021 5.31859.96875s-.38715 3.67883-2.60851 4.73439c0 0 0 0-.00087 0-.79776.38021-1.64412.57813-2.43665.57813zm2.05556-1.38021h.01736zm.11111-3.69966c-.49653 0-1.08334.12326-1.67622.40451-.68229.32465-1.25608.80729-1.57553 1.32466-.24566.40104-.31597.77951-.19097 1.04167.12413.26215.46268.44792.92709.51042.60677.07292 1.34115-.05903 2.02258-.38368 1.34983-.64236 2.04515-1.77952 1.7665-2.36633-.15713-.32986-.64064-.53125-1.27345-.53125z" fill="#101016"/></g><g><ellipse cx="29.351" cy="55.345" fill="#ffdc6e" rx="2.268" ry="3.5" transform="matrix(.463 -.887 .887 .463 -33.294 55.763)"/><path d="m30.48386 58.81422c-.83768 0-1.74827-.22916-2.59289-.67014-2.18056-1.13889-3.24827-3.25869-2.43056-4.82988.81945-1.56771 3.17015-1.90452 5.35158-.7691.9783.51042 1.77865 1.25174 2.24914 2.08508.53299.94271.59896 1.94445.18056 2.7448-.31424.60243-.86285 1.04167-1.58681 1.2691-.36199.11459-.75782.17014-1.17102.17014zm-2.26216-5.16147c-.58073 0-1.02604.17882-1.1849.48438-.30122.57639.35243 1.73959 1.67709 2.43056.83768.4375 1.76129.58334 2.40713.38021.26823-.08334.45139-.21701.54427-.3941.13542-.25868.07986-.64063-.15191-1.04861-.29948-.53125-.85504-1.03473-1.52431-1.38368-.62413-.3264-1.25-.46876-1.76737-.46876z" fill="#101016"/></g><g><ellipse cx="19.368" cy="59.895" fill="#ffdc6e" rx="3.5" ry="2.268" transform="matrix(.517 -.856 .856 .517 -41.914 45.504)"/><path d="m18.38921 64c-.46528 0-.90625-.11632-1.28993-.34896-.77431-.46701-1.23785-1.3559-1.27257-2.43924-.03038-.9566.26736-2.00348.83768-2.94966h.00087c1.27344-2.10591 3.45747-3.03994 4.97137-2.12327 1.51563.91493 1.70573 3.28126.43403 5.3889-.57118.94445-1.35938 1.69619-2.22049 2.11459-.49134.23785-.98874.35764-1.46096.35764zm-.20226-4.81772c-.39063.64584-.60243 1.36459-.58334 1.97396.01476.46875.1658.82292.41406.97396.24566.14757.63108.11806 1.05469-.08681.54861-.26736 1.08594-.78993 1.4757-1.43577.77257-1.27778.72656-2.61112.17014-2.94792-.55728-.32986-1.75781.24132-2.53125 1.52258z" fill="#101016"/></g></g></svg>