<svg id="Layer_1" viewBox="0 0 128 128" xmlns="http://www.w3.org/2000/svg" data-name="Layer 1"><path d="m16 101c2.34-3.22 4-6 9-7 8.4-1.67 17.62-3.8 22-3 9.65 1.77 10 4 18 5 7.08.84 7.81-.82 17-1 8.14-.16 24.53 4.53 28 12 1.54 3.32-.25 8.21-3 11-5.05 5.12-13.45-.18-30-1-14.61-.72-14.74 3.08-34 3-12.89-.05-24.42-.24-28-7a12 12 0 0 1 1-12z" fill="#302517"/><path d="m56 4v34c0 4.4 16 4.4 16 0v-34" fill="#ae937c"/><path d="m62 2h-6v29a6 6 0 0 0 6-6z" fill="#d1b6a1"/><path d="m56 37v-37" fill="none" stroke="#96745a" stroke-miterlimit="10" stroke-width="4"/><path d="m72 0v37" fill="none" stroke="#96745a" stroke-miterlimit="10" stroke-width="4"/><path d="m80.36 117c2.86-5.26 3.53-9.85 4.64-12.74v-43.26h-42v43.26c1.11 2.9 1.78 7.48 4.64 12.74z" fill="#0e5939"/><path d="m43 61v43a6 6 0 0 0 6-6v-31a6 6 0 0 0 6-6z" fill="#fff" opacity=".29"/><path d="m56 37 3 30s1 21 5 21 5-21 5-21l3-30z" fill="#0e5939"/><path d="m62.78 58.25-.78-21.25h-6l2.81 27.48c4.13-1.72 3.97-6.22 3.97-6.23z" fill="#fff" opacity=".29"/><circle cx="64" cy="46" fill="#c2c3cc" r="3"/><g fill="none" stroke="#0d3827" stroke-linecap="round" stroke-linejoin="round" stroke-width="4"><path d="m59 61s1 21 5 21 5-21 5-21"/><path d="m80.36 117c2.86-5.26 3.53-9.85 4.64-12.74v-43.26h-15.55l2.55-24h-16l2.55 24h-15.55v43.26c1.11 2.9 1.78 7.48 4.64 12.74z"/><path d="m64 82v19"/></g><path d="m103 110c-4.62-1.83-7.13.15-21 2-9.38 1.25-14.07 1.88-17 1-8.76-2.62-8.2-9.4-20-15-3.79-1.8-9-4.19-14-2a12.85 12.85 0 0 0 -6 6c-7.35 2-12.18 7.62-12 13a9.3 9.3 0 0 0 2 5.34v3.66a2 2 0 0 0 4 0 23.08 23.08 0 0 0 7 3c7 1.67 10.17-2 17-3a2 2 0 0 0 4 0 4 4 0 0 0 7.76 1.32 25.26 25.26 0 0 0 8.24 1.68c6.32.28 10.59-1.16 14-2a47.77 47.77 0 0 1 9-1.31v.31a2 2 0 0 0 4 0v-.35q1.54 0 3 .17v.18a4 4 0 0 0 7.88.94c6.42 1.22 10.68 2.52 12.12.06 2.06-3.51-3.07-12.25-10-15z" fill="#5e4932"/><circle cx="35" cy="113" fill="#72583e" r="3"/><circle cx="106" cy="124" fill="#72583e" r="3"/><circle cx="46" cy="106" fill="#443422" r="3"/><circle cx="21" cy="118" fill="#443422" r="3"/><circle cx="49" cy="119" fill="#443422" r="3"/><circle cx="65" cy="119" fill="#72583e" r="4"/><circle cx="99" cy="116" fill="#443422" r="4"/><circle cx="84" cy="118" fill="#443422" r="3"/></svg>