<svg height="512" viewBox="0 0 512 512" width="512" xmlns="http://www.w3.org/2000/svg"><path d="m261.225 385.06h45.098" fill="none" stroke="#000" stroke-linecap="round" stroke-linejoin="round" stroke-width="16"/><path d="m272.784 249.982-50.972-16.717-73.145-10.253-81.527 44.088a57.488 57.488 0 0 0 -30.14 50.568v98.29h286.723v-95.658a74 74 0 0 0 -50.939-70.318z" fill="#aaccfa"/><path d="m108.312 364.312h180.926v95.78h-180.926z" fill="#c89632"/><path d="m468.537 305.685-104.588-3.27a15.535 15.535 0 0 0 -13.9 7.7l-84.189 144.305a6.662 6.662 0 0 0 5.546 10.016l104.588 3.269a15.536 15.536 0 0 0 13.9-7.7l84.189-144.305a6.661 6.661 0 0 0 -5.546-10.015z" fill="#bec3d2"/><path d="m287.482 417.318-.262-4.3a13.856 13.856 0 0 0 -19.335-11.891l-30.71 13.248a18.718 18.718 0 0 0 -8.475 7.263l-9.747 15.522-102.641 2.358v-26.653h-11v34.288a3.54 3.54 0 0 0 3.536 3.536l116.273-2.669 12.895-20.533a7.763 7.763 0 0 1 3.515-3.013l30.711-13.248a2.842 2.842 0 0 1 1.137-.24 2.875 2.875 0 0 1 2.861 2.7l1.266 20.773 10.007-17.159z" fill="#b4821e"/><path d="m347.153 415.272a17.485 17.485 0 0 0 -25.2-14.876l-34.44 16.904-10.007 17.154v.012l49.3-24.2a6.445 6.445 0 0 1 2.863-.676 6.51 6.51 0 0 1 6.5 6.2l1.717 35.886a6.54 6.54 0 0 1 -2.852 5.7q-6.8 4.588-13 8.637l18.982.593.17-.115a17.6 17.6 0 0 0 7.684-15.34z" fill="#afb4c8"/><path d="m348.811 453.587a17.258 17.258 0 0 0 .06-2.43l-1.718-35.885a17.485 17.485 0 0 0 -25.2-14.876l-6.389 3.136-6.19 10.611a26.238 26.238 0 0 0 -2.541 5.928l19.967-9.8a6.445 6.445 0 0 1 2.863-.676 6.51 6.51 0 0 1 6.5 6.2l1.717 35.886a6.391 6.391 0 0 1 -.122 1.559z" fill="#bec3d2"/><path d="m194.265 110.614c-15.415 0-30.757-.406-45.6-1.177v113.575s4.848 26.48 23.548 41.115 49.6 16.818 49.6-17.686v-30.966l30.849 4.22a8.534 8.534 0 0 0 9.69-8.468l-.038-24.817 15.1-5.991a2.741 2.741 0 0 0 1.422-3.809l-17.936-34.574v-33.984c-21.212 1.671-43.91 2.562-66.635 2.562z" fill="#ffcdbe"/><path d="m262.351 211.227-.038-24.817 15.1-5.991a2.741 2.741 0 0 0 1.422-3.809l-17.935-34.574v-33.984c-21.215 1.671-43.913 2.562-66.638 2.562-8.254 0-16.48-.125-24.627-.352v107.594s4.847 26.48 23.548 41.115a48.088 48.088 0 0 0 21.127 9.566c4.579-4.378 7.5-11.5 7.5-22.1v-30.962l30.849 4.22a8.534 8.534 0 0 0 9.692-8.468z" fill="#fcd3c4"/><path d="m115.706 107.033v46.094a35.492 35.492 0 0 0 9.667 24.347l23.294 24.7 2.763-59.872a21.673 21.673 0 0 1 40.7-9.022l7.857 14.523 16.46-37.473c-7.358.184-14.766.281-22.178.281-27.211.003-54.203-1.247-78.563-3.578z" fill="#323232"/><path d="m351.531 90.9c-1.289-6.991-44.074-13.812-80.806-16l-156.287.251c-45.753 3.193-77.438 9.096-77.438 15.749 0 10.087 70.41 22.716 157.265 22.716s159.078-12.884 157.266-22.716z" fill="#c89632"/><path d="m238.242 8h-91.257a19.982 19.982 0 0 0 -19.372 15.081l-15.843 62.619s23.833 3.737 80.843 3.737 80.844-3.737 80.844-3.737l-15.843-62.619a19.982 19.982 0 0 0 -19.372-15.081z" fill="#b4821e"/><path d="m221.812 233.265v-17.79l-35.907-6.756z" fill="#ffcdbe"/><path d="m108.312 412.865v34.288a.536.536 0 0 0 .549.536l114.577-2.632 12.037-19.166a10.8 10.8 0 0 1 4.868-4.172l30.711-13.248a5.867 5.867 0 0 1 8.181 5.031l.993 16.29 45.252-22.215a9.5 9.5 0 0 1 13.683 8.077l1.717 35.885a9.5 9.5 0 0 1 -4.17 8.328c-12.1 8.173-45.467 30.307-54.731 32.292-9.024 1.934-157.714 8.978-218.946 11.814a24.883 24.883 0 0 1 -26.033-24.861v-66.247z" fill="#ffcdbe"/><g><path d="m481.156 305.24a14.544 14.544 0 0 0 -12.369-7.552l-104.587-3.269a23.515 23.515 0 0 0 -21.064 11.664l-11.412 19.562v-5.345a81.829 81.829 0 0 0 -56.446-77.915l-45.465-14.91v-2.826l21.765 2.977a16.534 16.534 0 0 0 18.774-16.406l-.03-19.376 12.857-5.1a8 8 0 0 0 4.152-11.119l-18.431-35.54v-21.665c11.22-.992 21.981-2.2 32.034-3.619 47.777-6.737 53.978-14.184 56.015-16.632a10.515 10.515 0 0 0 2.446-8.722c-1.305-7.079-9.149-10.479-20.524-13.4a287.932 287.932 0 0 0 -33.993-6.013 8 8 0 0 0 -2 15.874 268.142 268.142 0 0 1 32.431 5.746c-7.38 2.216-19.564 4.979-38.561 7.58-30.062 4.118-66.459 6.385-102.486 6.385-36.475 0-73-2.285-102.86-6.435-19.453-2.7-31.683-5.6-38.9-7.883 5.677-1.485 14.788-3.301 29.272-5.07a8 8 0 1 0 -1.944-15.881c-14.1 1.726-25.268 3.731-33.188 5.958-5.279 1.484-17.642 4.961-17.642 14.592 0 8.91 8.985 16.239 52.834 23.046 8.137 1.263 16.806 2.379 25.872 3.344v35.839a43.333 43.333 0 0 0 11.845 29.834l21.116 22.4v12.882l-77.333 41.82a65.421 65.421 0 0 0 -34.334 57.603v161.444a32.883 32.883 0 0 0 32.832 32.888q.783 0 1.571-.036c95.639-4.429 211.485-10.1 220.252-11.983 7.723-1.655 27.079-12.92 57.532-33.484a17.6 17.6 0 0 0 7.684-15.34l-1.718-35.885a17.5 17.5 0 0 0 -25.2-14.876l-21.463 10.535 56.463-96.785a7.527 7.527 0 0 1 6.744-3.734l102.342 3.2-83.051 142.363a7.553 7.553 0 0 1 -6.744 3.734l-12.221-.382a8 8 0 0 0 -.5 15.992l12.221.382c.248.008.494.012.741.012a23.514 23.514 0 0 0 20.323-11.676l84.186-144.306a14.538 14.538 0 0 0 .162-14.491zm-165.433 15.06v32.776l-18.485 31.686v-20.45a8 8 0 0 0 -8-8h-16.307a451.091 451.091 0 0 0 -3.538-54.965 166.228 166.228 0 0 0 -14.077-48.675l14.975 4.911a65.863 65.863 0 0 1 45.432 62.717zm-183.64 67.61q.327.027.65.027a8 8 0 0 0 7.965-7.357c.035-.431.267-3.424.481-8.268h115.609c-.106 4.475-.235 7.117-.24 7.216a8 8 0 0 0 7.581 8.4c.14.007.278.011.416.011a8 8 0 0 0 7.983-7.59c.021-.422.164-3.324.277-8.035h8.433v30.122c-.195-.134-.393-.264-.6-.388a13.882 13.882 0 0 0 -12.758-.921l-30.71 13.248a18.718 18.718 0 0 0 -8.475 7.263l-9.747 15.522-102.641 2.358v-67.2h8.836c-.193 4.336-.39 6.886-.4 6.984a8 8 0 0 0 7.34 8.608zm121.717-242.191 15.251 29.409-9.69 3.846a8 8 0 0 0 -5.049 7.448l.038 24.817a.534.534 0 0 1 -.606.53l-30.844-4.221a8 8 0 0 0 -9.084 7.927v30.966c0 9.6-2.643 15.753-7.855 18.293-7.136 3.478-19.254.572-28.811-6.907-14.524-11.367-19.628-31.793-20.479-35.637v-22.983l2.749-56.425a13.673 13.673 0 0 1 25.674-5.693l7.857 14.524a8 8 0 0 0 14.361-.59l13.089-29.8c11.016-.324 21.906-.849 32.506-1.564v22.376a8 8 0 0 0 .893 3.684zm-51.031-24.15-3.534 8.044-.074-.137a29.719 29.719 0 0 0 -6.152-7.867c.419 0 .836.005 1.255.005q4.253 0 8.506-.045zm-79.064 31.558v-34.335c9.847.816 20.047 1.462 30.475 1.928a29.591 29.591 0 0 0 -10.737 21.11l-2.42 40.584-9.83-10.428a27.388 27.388 0 0 1 -7.487-18.859zm19.937 81.7c3.423 10.065 10.432 25.265 23.642 35.6 8.5 6.653 20.289 11.771 31.649 11.771a31.788 31.788 0 0 0 14.03-3.08c6.292-3.066 16.848-11.388 16.848-32.677v-2.133l3.109 1.02a105.809 105.809 0 0 1 7.747 13.806 151.151 151.151 0 0 1 12.866 44.335 436.313 436.313 0 0 1 3.373 52.843h-115.357c.051-15.053-.707-35.249-4.007-55.209-4.3-26-13.33-43.989-18.693-52.87zm-72.7 39.316 33.8-18.278c4.417 7.2 13.011 23.642 17.013 47.85 3.106 18.784 3.812 38.162 3.764 52.6h-17.207a8 8 0 0 0 -8 8v40.553h-55.312v-87.2a49.433 49.433 0 0 1 25.946-43.528zm258.063 140.615a1.505 1.505 0 0 1 2.167 1.279l1.717 35.885a1.489 1.489 0 0 1 -.656 1.316c-29.927 20.208-47.646 30.18-51.9 31.092-6.7 1.278-90.107 5.743-217.672 11.651a16.883 16.883 0 0 1 -17.661-16.869v-58.247h55.312v26.288a8.536 8.536 0 0 0 8.733 8.534l114.577-2.632a8 8 0 0 0 6.591-3.743l12.037-19.167a2.8 2.8 0 0 1 1.262-1.081l27.923-12.045.807 13.259a8 8 0 0 0 11.511 6.695z"/><path d="m425.6 249.311a38.157 38.157 0 0 0 -19.55 5.392 8 8 0 1 0 8.2 13.739 22.138 22.138 0 0 1 22.7 0 8 8 0 1 0 8.2-13.739 38.158 38.158 0 0 0 -19.55-5.392z"/><path d="m382.319 226.815a74.53 74.53 0 0 1 86.568 0 8 8 0 1 0 9.3-13.022 90.528 90.528 0 0 0 -105.16 0 8 8 0 1 0 9.3 13.022z"/><path d="m457.3 248.917a8 8 0 0 0 4.515-14.61 64.286 64.286 0 0 0 -72.432 0 8 8 0 1 0 9.015 13.218 48.285 48.285 0 0 1 54.4 0 7.97 7.97 0 0 0 4.502 1.392z"/><path d="m110.531 93.6c1 .157 25.1 3.834 82.082 3.834s81.087-3.679 82.087-3.834a8 8 0 0 0 6.516-9.866l-15.846-62.615a27.957 27.957 0 0 0 -27.128-21.119h-91.257a27.956 27.956 0 0 0 -27.128 21.119l-15.842 62.613a8 8 0 0 0 6.516 9.866zm24.837-68.555a11.973 11.973 0 0 1 11.617-9.045h91.257a11.971 11.971 0 0 1 11.616 9.043l13.6 53.741c-11.385 1.078-34.245 2.648-70.843 2.648s-59.46-1.57-70.842-2.648z"/></g></svg>